<svg width="1450" height="1391" viewBox="0 0 1450 1391" fill="none" xmlns="http://www.w3.org/2000/svg">
<g style="mix-blend-mode:overlay">
<path d="M1448.39 624.08C1439.36 489.77 1391.21 358.61 1310.94 253.59C1379.09 366.79 1416.42 495.73 1416.61 625.25C1417.49 726.1 1396.02 827.48 1354.67 919.46C1142.17 1382.26 533.356 1471.09 199.776 1084.92C0.715652 851.59 -20.7143 515.48 138.716 253.59C5.12566 426.71 -34.5643 670.18 30.9457 879.62C90.7557 1078.51 241.886 1247.06 432.816 1329.88C490.096 1354.93 550.786 1372.52 612.596 1382.26C620.416 1383.32 641.806 1385.97 649.856 1387.03L674.816 1388.98C688.766 1390.33 710.686 1390.46 724.826 1390.94C738.956 1390.48 760.906 1390.36 774.836 1389L799.796 1387.05C807.896 1385.99 829.256 1383.34 837.056 1382.28C845.046 1380.78 865.736 1377.25 874.026 1375.61C922.856 1365.3 971.176 1349.86 1016.86 1329.93C1294.77 1207.87 1468.03 927.11 1448.4 624.09L1448.39 624.08Z" fill="#C5CBA4"/>
<path d="M931.506 760.24C961.346 682.01 1022.18 627.36 1065.4 549.8C1099.13 491.44 1118.46 420.93 1104.25 353.84C1089.6 456.77 1034.01 524.36 968.756 600.96C930.526 647.18 891.806 697.02 876.946 756.78C853.046 860.95 896.356 985.98 953.606 1072.62C951.516 1063.76 949.346 1054.59 947.156 1045.19C934.586 953.17 939.416 848.07 1017.33 793.65C1016.07 827.07 1015.21 861.43 1014.95 893.6C1014.71 904.81 1014.84 933.55 1014.13 944.19C1012.75 960.7 1009.35 977.23 1005.38 993.54C1002.24 1004.31 1000.37 1016.11 993.856 1025.45C1003.55 1018.69 1009.17 1007.35 1015.2 997.46C1026.7 976.8 1036.19 953.85 1039.91 930.37C1052.07 863.13 1057.77 792.59 1063.31 724.49L1031.33 738.48C1001.38 751.29 973.356 771.03 953.336 797.26C936.126 819.94 925.086 845.3 919.086 871.84C917.296 832.16 920.276 793.83 931.506 760.24Z" fill="#C5CBA4"/>
<path d="M962.966 112.32C965.356 114.5 970.786 117.55 973.556 119.36C988.116 128.68 999.466 142.23 1007.68 159.12C1015.97 176.01 1020.89 195.47 1025.35 216.3C1032.31 196.18 1033.92 173.85 1028.72 151.78C1023.46 129.3 1009.36 107.87 989.786 94.9399C983.876 91.0999 982.086 90.09 978.956 87.4C954.876 63.39 945.106 30.92 928.866 0.0100098C923.506 38.36 931.976 85.9799 962.976 112.32H962.966Z" fill="#C5CBA4"/>
<path d="M828.795 564.92C913.015 545.44 994.805 485.04 1017.23 398.11C1026.99 359.13 1024.31 318.87 1013.43 280.79C1010.62 235.94 995.885 190.21 977.275 153.17C985.935 182.82 994.405 213.1 1000.07 243.7C996.985 236.67 993.645 229.76 990.065 223.01C976.725 198.16 957.445 176.18 942.565 153.69C928.355 132.1 922.485 108.17 922.095 82.12C921.285 55.47 925.275 27.86 928.855 0.0100098C922.635 12.67 917.055 25.61 912.425 38.98C897.065 80.26 892.275 129.28 913.585 169.75C926.415 195.38 942.845 216.58 954.605 241.45C968.645 270.27 976.795 301.73 980.845 333.55C992.635 437.91 912.105 515.04 828.785 564.91L828.795 564.92Z" fill="#C5CBA4"/>
<path d="M1140.84 635.24C1140.84 617.8 1126.7 603.65 1109.26 603.65C1091.82 603.65 1077.67 617.79 1077.67 635.24C1077.67 652.69 1091.81 666.82 1109.26 666.82C1126.71 666.82 1140.84 652.68 1140.84 635.24Z" fill="#C5CBA4"/>
<path d="M1101.83 311.33C1119.16 311.33 1133.21 297.281 1133.21 279.95C1133.21 262.619 1119.16 248.57 1101.83 248.57C1084.49 248.57 1070.45 262.619 1070.45 279.95C1070.45 297.281 1084.49 311.33 1101.83 311.33Z" fill="#C5CBA4"/>
<path d="M1094.78 227.77C1108.21 227.77 1119.11 216.877 1119.11 203.44C1119.11 190.003 1108.21 179.11 1094.78 179.11C1081.34 179.11 1070.45 190.003 1070.45 203.44C1070.45 216.877 1081.34 227.77 1094.78 227.77Z" fill="#C5CBA4"/>
<path d="M482.835 1072.62C540.135 985.85 583.375 861.04 559.495 756.78C544.645 697.02 505.915 647.17 467.685 600.96C402.425 524.32 346.865 456.84 332.195 353.84C317.985 420.92 337.325 491.46 371.045 549.8C414.255 627.35 475.105 682.01 504.935 760.24C516.165 793.81 519.135 832.15 517.345 871.84C511.345 845.3 500.305 819.95 483.095 797.27C463.075 771.04 435.055 751.3 405.105 738.49L373.125 724.5C378.655 792.56 384.365 863.17 396.525 930.38C400.235 953.86 409.735 976.82 421.235 997.47C427.265 1007.35 432.885 1018.71 442.575 1025.46C436.055 1016.12 434.195 1004.33 431.055 993.55C427.075 977.24 423.675 960.72 422.305 944.2C421.605 933.39 421.745 904.96 421.485 893.61C421.225 861.4 420.365 827.08 419.105 793.66C497.015 848.08 501.855 953.18 489.275 1045.2C487.085 1054.6 484.925 1063.77 482.835 1072.62Z" fill="#C5CBA4"/>
<path d="M428.766 159.11C436.976 142.23 448.326 128.68 462.886 119.35C465.636 117.58 471.116 114.48 473.476 112.31C504.456 85.9999 512.956 38.32 507.576 0C491.326 30.92 481.576 63.37 457.486 87.39C454.366 90.08 452.566 91.0899 446.666 94.9299C427.096 107.86 412.996 129.28 407.736 151.77C402.536 173.84 404.146 196.17 411.106 216.29C415.566 195.46 420.486 176 428.776 159.11H428.766Z" fill="#C5CBA4"/>
<path d="M514.345 82.12C513.955 108.17 508.085 132.1 493.875 153.69C478.995 176.17 459.705 198.16 446.375 223.01C442.805 229.76 439.465 236.67 436.375 243.7C442.025 213.09 450.495 182.82 459.165 153.17C440.555 190.22 425.835 235.95 423.015 280.79C412.135 318.87 409.455 359.13 419.215 398.11C441.635 485.03 523.445 545.46 607.645 564.92C524.335 515.07 443.785 437.9 455.585 333.56C459.635 301.74 467.795 270.28 481.825 241.45C493.585 216.58 510.025 195.37 522.845 169.75C544.155 129.28 539.365 80.26 524.005 38.98C519.375 25.61 513.785 12.67 507.575 0.0100098C511.155 27.86 515.145 55.47 514.335 82.12H514.345Z" fill="#C5CBA4"/>
<path d="M295.605 635.24C295.605 652.68 309.745 666.82 327.195 666.82C344.645 666.82 358.776 652.68 358.776 635.24C358.776 617.8 344.635 603.65 327.195 603.65C309.755 603.65 295.605 617.79 295.605 635.24Z" fill="#C5CBA4"/>
<path d="M137.236 598.33C129.156 620.41 123.456 643.17 119.986 666.22C101.536 531.28 126.596 386.87 206.176 253.59C-84.7841 639.65 160.916 1192.42 636.006 1257.34L658.106 1260.16L680.316 1261.9C685.836 1262.44 697.016 1263 702.556 1263.05L724.816 1263.65L747.076 1263.07C752.636 1263.03 763.776 1262.45 769.316 1261.92C843.166 1257.09 916.916 1238.99 984.616 1209.26C1353.98 1050.61 1490.32 574.05 1243.46 253.59C1301.11 351.11 1333.79 461.56 1334.96 572.19C1336.06 622.6 1331 671.83 1320.53 719.15C1320.29 678.13 1313.43 637.19 1299.21 598.33C1286.77 565.12 1257.73 512.43 1242.01 480.02C1229.97 456.24 1209.8 416.59 1194.63 386.26C1238.71 417.07 1277.94 457.5 1296.58 507.75C1304.73 529.42 1310.45 552.09 1314.45 574.96C1312.58 496.94 1285.77 438.34 1228.19 385.42C1210.21 369.06 1191.42 354.25 1170.5 341.6L1140.26 323.95C1145.17 336.65 1154.72 362.72 1160.13 375.01C1189.79 443.06 1223.86 510.33 1258.23 576.02C1262.79 584.8 1269.51 599.17 1273.34 608.37C1297.7 669.02 1304.01 734.45 1297.1 798.96C1274.01 861.56 1241.09 919.57 1200.08 970.9C1227.92 895.5 1230.55 812.02 1219.12 732.94C1215.04 706.84 1210.43 681.19 1206.14 655.54C1207.14 656.94 1208.17 658.34 1209.17 659.74C1226.11 683.81 1242.21 708.3 1250.02 736.8C1258.58 764.94 1264.81 795.21 1259.22 824.62C1261.52 820.08 1262.98 815.13 1264.22 810.17C1272.27 774.67 1267.33 737.48 1256.67 702.95C1236.11 649.7 1198.99 602.02 1167.22 554.96C1170.02 591.29 1173.38 636.45 1179.22 671.85C1186.04 715.2 1195.12 758.06 1197.24 801.89C1201.6 870.94 1193.94 944.54 1166.87 1009.08C1137.62 1040.12 1105.18 1068.11 1070.03 1092.52C1141.24 989.44 1164.76 849.31 1134.95 730.48C1129.07 708.37 1121.57 686.25 1109.26 666.85C1111.91 689.45 1112.56 711.49 1112.79 733.45C1113.87 872.91 1090.11 998.43 1027.27 1119.66C946.606 1166.23 854.186 1194.86 755.066 1199.76C621.706 1205.11 502.376 1170.65 403.876 1109.18C345.036 991.22 322.616 868.88 323.666 733.44C323.896 711.48 324.546 689.44 327.196 666.84C314.886 686.24 307.376 708.36 301.506 730.47C273.306 842.89 292.886 974.32 355.346 1075.45C320.146 1048.31 288.276 1017.42 260.016 983.61C240.716 925.57 235.416 861.99 239.216 801.88C241.336 758.05 250.416 715.19 257.236 671.84C263.086 636.33 266.406 591.51 269.236 554.95C237.496 601.91 200.316 649.75 179.786 702.94C169.126 737.48 164.186 774.66 172.236 810.16C173.476 815.13 174.936 820.07 177.236 824.61C171.646 795.21 177.876 764.93 186.436 736.79C191.996 717.78 199.796 701.1 210.766 684.39C216.996 674.64 223.586 665.06 230.306 655.55C226.016 681.19 221.406 706.84 217.326 732.93C207.466 801.16 208.096 872.66 226.316 939.43C186.056 881.39 155.636 816.53 136.726 747.82C137.026 700.26 145.166 653.02 163.096 608.37L170.246 592.05L178.206 576.02C212.576 510.31 246.636 443.08 276.306 375.01C281.666 362.82 291.216 336.86 296.176 323.95C277.766 334.75 252.126 348.89 235.826 362.28C207.176 384.13 181.406 409.89 161.266 439.88C134.036 479.38 123.346 527.85 121.976 574.96C125.976 552.08 131.696 529.41 139.846 507.75C158.476 457.51 197.716 417.07 241.786 386.26C226.596 416.62 206.546 456.11 194.416 480.01C178.756 512.18 149.556 565.39 137.216 598.32L137.236 598.33Z" fill="#C5CBA4"/>
<path d="M334.615 311.33C351.946 311.33 365.995 297.281 365.995 279.95C365.995 262.619 351.946 248.57 334.615 248.57C317.285 248.57 303.235 262.619 303.235 279.95C303.235 297.281 317.285 311.33 334.615 311.33Z" fill="#C5CBA4"/>
<path d="M341.676 227.77C355.113 227.77 366.006 216.877 366.006 203.44C366.006 190.003 355.113 179.11 341.676 179.11C328.239 179.11 317.346 190.003 317.346 203.44C317.346 216.877 328.239 227.77 341.676 227.77Z" fill="#C5CBA4"/>
<path d="M716.886 1075.67C726.789 1075.67 734.816 1069.97 734.816 1062.94C734.816 1055.91 726.789 1050.21 716.886 1050.21C706.984 1050.21 698.956 1055.91 698.956 1062.94C698.956 1069.97 706.984 1075.67 716.886 1075.67Z" fill="#C5CBA4"/>
<path d="M709.786 986.91C701.866 983.96 698.766 977 702.866 971.38C706.966 965.75 716.716 963.59 724.636 966.54C732.556 969.49 735.656 976.45 731.556 982.07C727.456 987.7 717.706 989.86 709.786 986.91Z" fill="#C5CBA4"/>
<path d="M702.686 898.15C696.746 892.24 698.576 884.03 706.776 879.81C714.976 875.59 726.446 876.96 732.386 882.87C738.326 888.78 736.496 896.99 728.296 901.21C720.096 905.43 708.626 904.06 702.686 898.15Z" fill="#C5CBA4"/>
<path d="M695.585 809.39C691.625 800.53 698.385 791.07 710.685 788.25C722.985 785.44 736.175 790.34 740.135 799.2C744.095 808.06 737.335 817.52 725.035 820.34C712.735 823.15 699.545 818.25 695.585 809.39Z" fill="#C5CBA4"/>
<path d="M688.486 720.63C686.506 708.82 698.196 698.1 714.596 696.69C730.996 695.28 745.896 703.72 747.876 715.53C749.856 727.34 738.166 738.06 721.766 739.47C705.366 740.88 690.466 732.44 688.486 720.63Z" fill="#C5CBA4"/>
<path d="M718.506 658.61C739.007 658.61 755.626 646.638 755.626 631.87C755.626 617.102 739.007 605.13 718.506 605.13C698.005 605.13 681.386 617.102 681.386 631.87C681.386 646.638 698.005 658.61 718.506 658.61Z" fill="#C5CBA4"/>
<path d="M716.886 530.76C629.416 530.76 558.256 459.6 558.256 372.13C558.256 284.66 629.416 213.5 716.886 213.5C804.356 213.5 875.516 284.66 875.516 372.13C875.516 459.6 804.356 530.76 716.886 530.76ZM716.886 255.65C652.656 255.65 600.406 307.9 600.406 372.13C600.406 436.36 652.656 488.61 716.886 488.61C781.116 488.61 833.366 436.36 833.366 372.13C833.366 307.9 781.116 255.65 716.886 255.65Z" fill="#C5CBA4"/>
</g>
</svg>
